<svg width="271" height="38" viewBox="0 0 271 38" fill="none" xmlns="http://www.w3.org/2000/svg">
<path d="M268.959 21C268.936 20.1778 268.685 19.3773 268.233 18.6887C267.783 18.0015 267.149 17.4516 266.403 17.1029C266.687 16.3304 266.747 15.4942 266.581 14.6885C266.414 13.8816 266.025 13.1384 265.459 12.5415C264.86 11.9751 264.118 11.5869 263.312 11.4189C262.506 11.2535 261.67 11.3133 260.897 11.5971C260.55 10.85 260.001 10.2149 259.313 9.76437C258.624 9.31382 257.824 9.06182 257 9.04146C256.178 9.06309 255.38 9.31255 254.693 9.76437C254.005 10.2162 253.459 10.8513 253.114 11.5971C252.341 11.3133 251.502 11.2509 250.694 11.4189C249.886 11.5844 249.141 11.9738 248.543 12.5415C247.976 13.1396 247.59 13.8842 247.425 14.6898C247.26 15.4955 247.324 16.3316 247.609 17.1029C246.862 17.4516 246.225 18.0002 245.772 18.6875C245.319 19.3747 245.066 20.1765 245.042 21C245.067 21.8235 245.319 22.624 245.772 23.3125C246.225 23.9998 246.862 24.5496 247.609 24.8971C247.324 25.6684 247.26 26.5045 247.425 27.3102C247.591 28.1171 247.976 28.8604 248.542 29.4585C249.14 30.0224 249.883 30.4093 250.689 30.576C251.494 30.744 252.33 30.6829 253.103 30.4029C253.452 31.1487 254 31.7825 254.689 32.2344C255.376 32.6849 256.178 32.9356 257 32.9585C257.824 32.9382 258.624 32.6875 259.313 32.2369C260.001 31.7864 260.55 31.15 260.897 30.4042C261.666 30.7084 262.508 30.7809 263.319 30.6129C264.129 30.4449 264.872 30.044 265.457 29.4585C266.043 28.8731 266.445 28.1298 266.613 27.3191C266.781 26.5084 266.708 25.6658 266.403 24.8971C267.149 24.5484 267.783 23.9998 268.234 23.3113C268.685 22.624 268.936 21.8222 268.959 21ZM255.297 25.9L250.933 21.5371L252.579 19.88L255.216 22.5171L260.816 16.4156L262.53 18.0015L255.297 25.9Z" fill="#1D9BF0"/>
<path d="M13.5114 33.776C11.2287 33.776 9.28738 33.392 7.68738 32.624C6.08738 31.856 4.83938 30.7467 3.94338 29.296C3.04738 27.824 2.49271 26.064 2.27938 24.016C2.25804 23.7173 2.23671 23.3227 2.21538 22.832C2.19404 22.3413 2.18338 21.8187 2.18338 21.264C2.18338 20.7093 2.19404 20.1867 2.21538 19.696C2.23671 19.2053 2.25804 18.8213 2.27938 18.544C2.42871 17.0933 2.78071 15.76 3.33538 14.544C3.89004 13.328 4.62604 12.2933 5.54338 11.44C6.48204 10.5653 7.60204 9.89333 8.90338 9.424C10.2047 8.95467 11.698 8.72 13.3834 8.72C15.3247 8.72 16.9994 8.944 18.4074 9.392C19.8367 9.84 21.0207 10.4907 21.9594 11.344C22.9194 12.1973 23.6447 13.232 24.1354 14.448C24.626 15.664 24.914 17.0293 24.9994 18.544C25.042 19.0987 25.0634 19.6533 25.0634 20.208C25.0634 20.7627 25.0527 21.2747 25.0314 21.744C25.0314 22.192 25.0207 22.5227 24.9994 22.736C24.9354 23.7813 24.722 24.656 24.3594 25.36C23.9967 26.064 23.4954 26.5973 22.8554 26.96C22.2367 27.3013 21.5007 27.472 20.6474 27.472C19.9434 27.472 19.346 27.3547 18.8554 27.12C18.3647 26.8853 17.9807 26.6293 17.7034 26.352C17.426 26.0533 17.2234 25.8187 17.0954 25.648C16.9247 25.9253 16.6794 26.2347 16.3594 26.576C16.0607 26.9173 15.6447 27.2053 15.1114 27.44C14.578 27.6747 13.8847 27.792 13.0314 27.792C11.4527 27.792 10.194 27.2267 9.25538 26.096C8.31671 24.9653 7.84738 23.3547 7.84738 21.264C7.84738 19.1733 8.31671 17.5627 9.25538 16.432C10.194 15.28 11.4527 14.704 13.0314 14.704C13.906 14.704 14.5887 14.864 15.0794 15.184C15.5914 15.504 15.9967 15.856 16.2954 16.24V15.696C16.2954 15.4827 16.3594 15.312 16.4874 15.184C16.6367 15.0347 16.818 14.96 17.0314 14.96H17.8954C18.1087 14.96 18.2794 15.0347 18.4074 15.184C18.5567 15.312 18.6314 15.4827 18.6314 15.696V22.512C18.6314 23.4293 18.8234 24.112 19.2074 24.56C19.5914 25.008 20.0714 25.232 20.6474 25.232C21.2234 25.232 21.65 25.072 21.9274 24.752C22.226 24.432 22.418 24.0587 22.5034 23.632C22.61 23.184 22.6634 22.8107 22.6634 22.512C22.6847 22.192 22.706 21.68 22.7274 20.976C22.7487 20.272 22.7274 19.5147 22.6634 18.704C22.5354 17.0187 22.1407 15.6 21.4794 14.448C20.8394 13.296 19.858 12.4213 18.5354 11.824C17.234 11.2267 15.5167 10.928 13.3834 10.928C11.634 10.928 10.1407 11.248 8.90338 11.888C7.66604 12.5067 6.68471 13.392 5.95938 14.544C5.25538 15.696 4.80738 17.0827 4.61538 18.704C4.57271 19.0667 4.54071 19.5787 4.51938 20.24C4.51938 20.9013 4.51938 21.5733 4.51938 22.256C4.54071 22.9173 4.57271 23.4507 4.61538 23.856C4.87138 26.3093 5.74604 28.208 7.23938 29.552C8.75404 30.8747 10.8447 31.536 13.5114 31.536C15.0474 31.536 16.2634 31.408 17.1594 31.152C18.0554 30.9173 18.738 30.6293 19.2074 30.288C19.698 29.968 20.0927 29.7013 20.3914 29.488C20.498 29.4027 20.6154 29.3173 20.7434 29.232C20.8714 29.1253 21.0314 29.072 21.2234 29.072H22.5034C22.6954 29.072 22.8554 29.1467 22.9834 29.296C23.1327 29.424 23.2074 29.584 23.2074 29.776C23.2074 29.8613 23.186 29.936 23.1434 30C23.122 30.0853 23.0794 30.16 23.0154 30.224C22.4607 30.8427 21.7674 31.4187 20.9354 31.952C20.1034 32.5067 19.0794 32.944 17.8634 33.264C16.6687 33.6053 15.218 33.776 13.5114 33.776ZM13.2234 25.552C14.354 25.552 15.1434 25.168 15.5914 24.4C16.0607 23.6107 16.2954 22.5653 16.2954 21.264C16.2954 19.9627 16.0607 18.9173 15.5914 18.128C15.1434 17.3387 14.354 16.944 13.2234 16.944C12.1354 16.944 11.3567 17.3387 10.8874 18.128C10.418 18.9173 10.1834 19.9627 10.1834 21.264C10.1834 22.032 10.2794 22.7467 10.4714 23.408C10.6847 24.048 11.0154 24.5707 11.4634 24.976C11.9114 25.36 12.498 25.552 13.2234 25.552ZM33.7684 30C33.491 30 33.2777 29.936 33.1284 29.808C32.979 29.6587 32.851 29.456 32.7444 29.2L28.2004 14.352C28.1577 14.2453 28.1364 14.1387 28.1364 14.032C28.1364 13.84 28.2004 13.68 28.3284 13.552C28.4777 13.424 28.6377 13.36 28.8084 13.36H30.2164C30.451 13.36 30.6324 13.424 30.7604 13.552C30.8884 13.68 30.9737 13.7973 31.0164 13.904L34.5684 25.968L38.3764 14.032C38.419 13.8827 38.5044 13.7333 38.6324 13.584C38.7817 13.4347 38.995 13.36 39.2724 13.36H40.3604C40.6377 13.36 40.851 13.4347 41.0004 13.584C41.1497 13.7333 41.235 13.8827 41.2564 14.032L45.0644 25.968L48.6164 13.904C48.6377 13.7973 48.7124 13.68 48.8404 13.552C48.9684 13.424 49.1497 13.36 49.3844 13.36H50.7924C50.9844 13.36 51.1444 13.424 51.2724 13.552C51.4004 13.68 51.4644 13.84 51.4644 14.032C51.4644 14.1387 51.443 14.2453 51.4004 14.352L46.8564 29.2C46.7924 29.456 46.675 29.6587 46.5044 29.808C46.355 29.936 46.131 30 45.8324 30H44.5844C44.307 30 44.0724 29.936 43.8804 29.808C43.7097 29.6587 43.5924 29.456 43.5284 29.2L39.8164 17.744L36.1044 29.2C36.019 29.456 35.891 29.6587 35.7204 29.808C35.5497 29.936 35.315 30 35.0164 30H33.7684ZM61.1951 30.32C58.9978 30.32 57.2485 29.648 55.9471 28.304C54.6458 26.9387 53.9311 25.0827 53.8031 22.736C53.7818 22.4587 53.7711 22.1067 53.7711 21.68C53.7711 21.232 53.7818 20.8693 53.8031 20.592C53.8885 19.0773 54.2405 17.7547 54.8591 16.624C55.4778 15.472 56.3205 14.5867 57.3871 13.968C58.4751 13.3493 59.7445 13.04 61.1951 13.04C62.8165 13.04 64.1711 13.3813 65.2591 14.064C66.3685 14.7467 67.2111 15.7173 67.7871 16.976C68.3631 18.2347 68.6511 19.7067 68.6511 21.392V21.936C68.6511 22.1707 68.5765 22.352 68.4271 22.48C68.2991 22.608 68.1285 22.672 67.9151 22.672H56.8431C56.8431 22.6933 56.8431 22.736 56.8431 22.8C56.8431 22.864 56.8431 22.9173 56.8431 22.96C56.8858 23.8347 57.0778 24.656 57.4191 25.424C57.7605 26.1707 58.2511 26.7787 58.8911 27.248C59.5311 27.7173 60.2991 27.952 61.1951 27.952C61.9631 27.952 62.6031 27.8347 63.1151 27.6C63.6271 27.3653 64.0431 27.1093 64.3631 26.832C64.6831 26.5333 64.8965 26.3093 65.0031 26.16C65.1951 25.8827 65.3445 25.7227 65.4511 25.68C65.5578 25.616 65.7285 25.584 65.9631 25.584H67.4991C67.7125 25.584 67.8831 25.648 68.0111 25.776C68.1605 25.8827 68.2245 26.0427 68.2031 26.256C68.1818 26.576 68.0111 26.9707 67.6911 27.44C67.3711 27.888 66.9125 28.336 66.3151 28.784C65.7178 29.232 64.9925 29.6053 64.1391 29.904C63.2858 30.1813 62.3045 30.32 61.1951 30.32ZM56.8431 20.464H65.6111V20.368C65.6111 19.408 65.4298 18.5547 65.0671 17.808C64.7258 17.0613 64.2245 16.4747 63.5631 16.048C62.9018 15.6 62.1125 15.376 61.1951 15.376C60.2778 15.376 59.4885 15.6 58.8271 16.048C58.1871 16.4747 57.6965 17.0613 57.3551 17.808C57.0138 18.5547 56.8431 19.408 56.8431 20.368V20.464ZM80.7014 30.32C79.4214 30.32 78.3547 30.096 77.5014 29.648C76.648 29.1787 75.9654 28.6027 75.4534 27.92V29.264C75.4534 29.4773 75.3787 29.6587 75.2294 29.808C75.1014 29.936 74.9307 30 74.7174 30H73.2454C73.032 30 72.8507 29.936 72.7014 29.808C72.5734 29.6587 72.5094 29.4773 72.5094 29.264V8.016C72.5094 7.80267 72.5734 7.632 72.7014 7.504C72.8507 7.35467 73.032 7.28 73.2454 7.28H74.7814C75.016 7.28 75.1974 7.35467 75.3254 7.504C75.4534 7.632 75.5174 7.80267 75.5174 8.016V15.376C76.0507 14.7147 76.7334 14.16 77.5654 13.712C78.4187 13.264 79.464 13.04 80.7014 13.04C81.896 13.04 82.9094 13.2533 83.7414 13.68C84.5947 14.0853 85.288 14.6507 85.8214 15.376C86.376 16.1013 86.792 16.9227 87.0694 17.84C87.3467 18.7573 87.496 19.7173 87.5174 20.72C87.5387 21.0613 87.5494 21.3813 87.5494 21.68C87.5494 21.9787 87.5387 22.2987 87.5174 22.64C87.496 23.664 87.3467 24.6347 87.0694 25.552C86.792 26.4693 86.376 27.2907 85.8214 28.016C85.288 28.72 84.5947 29.2853 83.7414 29.712C82.9094 30.1173 81.896 30.32 80.7014 30.32ZM80.0294 27.728C81.1387 27.728 82.0027 27.4933 82.6214 27.024C83.2614 26.5333 83.72 25.904 83.9974 25.136C84.2747 24.3467 84.4347 23.504 84.4774 22.608C84.4987 21.9893 84.4987 21.3707 84.4774 20.752C84.4347 19.856 84.2747 19.024 83.9974 18.256C83.72 17.4667 83.2614 16.8373 82.6214 16.368C82.0027 15.8773 81.1387 15.632 80.0294 15.632C79.0267 15.632 78.1947 15.8667 77.5334 16.336C76.872 16.8053 76.3707 17.4027 76.0294 18.128C75.7094 18.8533 75.5387 19.5893 75.5174 20.336C75.496 20.6773 75.4854 21.0933 75.4854 21.584C75.4854 22.0533 75.496 22.4587 75.5174 22.8C75.56 23.5893 75.7307 24.368 76.0294 25.136C76.3494 25.8827 76.8294 26.5013 77.4694 26.992C78.1307 27.4827 78.984 27.728 80.0294 27.728ZM98.6766 30.32C97.3326 30.32 96.1593 30.16 95.1566 29.84C94.154 29.4987 93.3113 29.0507 92.6286 28.496C91.946 27.9413 91.4233 27.3333 91.0606 26.672C90.7193 26.0107 90.538 25.328 90.5166 24.624C90.5166 24.432 90.5806 24.2827 90.7086 24.176C90.8366 24.0693 90.9966 24.016 91.1886 24.016H92.7566C92.9486 24.016 93.1193 24.0587 93.2686 24.144C93.418 24.2293 93.546 24.4107 93.6526 24.688C93.866 25.456 94.2286 26.0533 94.7406 26.48C95.274 26.9067 95.882 27.2053 96.5646 27.376C97.2686 27.5253 97.9726 27.6 98.6766 27.6C100.149 27.6 101.343 27.248 102.261 26.544C103.178 25.84 103.637 24.8053 103.637 23.44C103.637 22.0533 103.221 21.0613 102.389 20.464C101.557 19.8667 100.405 19.568 98.9326 19.568H95.8926C95.6793 19.568 95.498 19.504 95.3486 19.376C95.2206 19.248 95.1566 19.0667 95.1566 18.832V17.968C95.1566 17.776 95.1886 17.616 95.2526 17.488C95.338 17.3387 95.4233 17.2107 95.5086 17.104L101.717 10.32H92.2766C92.0633 10.32 91.882 10.256 91.7326 10.128C91.6046 10 91.5406 9.81867 91.5406 9.584V8.368C91.5406 8.13333 91.6046 7.952 91.7326 7.824C91.882 7.67467 92.0633 7.6 92.2766 7.6H105.045C105.279 7.6 105.461 7.67467 105.589 7.824C105.738 7.952 105.813 8.13333 105.813 8.368V9.52C105.813 9.66933 105.77 9.808 105.685 9.936C105.621 10.0427 105.546 10.1493 105.461 10.256L99.2846 17.136L99.7966 17.168C101.205 17.2107 102.431 17.4667 103.477 17.936C104.543 18.4053 105.365 19.1093 105.941 20.048C106.538 20.9653 106.837 22.128 106.837 23.536C106.837 24.9653 106.485 26.192 105.781 27.216C105.077 28.2187 104.106 28.9867 102.869 29.52C101.631 30.0533 100.234 30.32 98.6766 30.32ZM111.463 30C111.25 30 111.069 29.936 110.919 29.808C110.791 29.6587 110.727 29.4773 110.727 29.264V14.096C110.727 13.8827 110.791 13.712 110.919 13.584C111.069 13.4347 111.25 13.36 111.463 13.36H112.903C113.117 13.36 113.287 13.4347 113.415 13.584C113.565 13.712 113.639 13.8827 113.639 14.096V15.216C114.13 14.5547 114.749 14.032 115.495 13.648C116.242 13.2427 117.138 13.04 118.183 13.04C120.594 13.0187 122.301 14 123.303 15.984C123.794 15.088 124.509 14.3733 125.447 13.84C126.386 13.3067 127.453 13.04 128.647 13.04C129.757 13.04 130.759 13.296 131.655 13.808C132.573 14.32 133.287 15.0987 133.799 16.144C134.333 17.168 134.599 18.4587 134.599 20.016V29.264C134.599 29.4773 134.525 29.6587 134.375 29.808C134.247 29.936 134.077 30 133.863 30H132.359C132.146 30 131.965 29.936 131.815 29.808C131.687 29.6587 131.623 29.4773 131.623 29.264V20.304C131.623 19.1093 131.453 18.1707 131.111 17.488C130.77 16.8053 130.311 16.3253 129.735 16.048C129.159 15.7707 128.53 15.632 127.847 15.632C127.293 15.632 126.727 15.7707 126.151 16.048C125.575 16.3253 125.095 16.8053 124.711 17.488C124.349 18.1707 124.167 19.1093 124.167 20.304V29.264C124.167 29.4773 124.093 29.6587 123.943 29.808C123.815 29.936 123.645 30 123.431 30H121.927C121.714 30 121.533 29.936 121.383 29.808C121.255 29.6587 121.191 29.4773 121.191 29.264V20.304C121.191 19.1093 121.01 18.1707 120.647 17.488C120.285 16.8053 119.815 16.3253 119.239 16.048C118.663 15.7707 118.055 15.632 117.415 15.632C116.861 15.632 116.295 15.7707 115.719 16.048C115.143 16.3253 114.663 16.8053 114.279 17.488C113.917 18.1707 113.735 19.0987 113.735 20.272V29.264C113.735 29.4773 113.661 29.6587 113.511 29.808C113.383 29.936 113.213 30 112.999 30H111.463ZM145.789 30.32C143.592 30.32 141.842 29.648 140.541 28.304C139.24 26.9387 138.525 25.0827 138.397 22.736C138.376 22.4587 138.365 22.1067 138.365 21.68C138.365 21.232 138.376 20.8693 138.397 20.592C138.482 19.0773 138.834 17.7547 139.453 16.624C140.072 15.472 140.914 14.5867 141.981 13.968C143.069 13.3493 144.338 13.04 145.789 13.04C147.41 13.04 148.765 13.3813 149.853 14.064C150.962 14.7467 151.805 15.7173 152.381 16.976C152.957 18.2347 153.245 19.7067 153.245 21.392V21.936C153.245 22.1707 153.17 22.352 153.021 22.48C152.893 22.608 152.722 22.672 152.509 22.672H141.437C141.437 22.6933 141.437 22.736 141.437 22.8C141.437 22.864 141.437 22.9173 141.437 22.96C141.48 23.8347 141.672 24.656 142.013 25.424C142.354 26.1707 142.845 26.7787 143.485 27.248C144.125 27.7173 144.893 27.952 145.789 27.952C146.557 27.952 147.197 27.8347 147.709 27.6C148.221 27.3653 148.637 27.1093 148.957 26.832C149.277 26.5333 149.49 26.3093 149.597 26.16C149.789 25.8827 149.938 25.7227 150.045 25.68C150.152 25.616 150.322 25.584 150.557 25.584H152.093C152.306 25.584 152.477 25.648 152.605 25.776C152.754 25.8827 152.818 26.0427 152.797 26.256C152.776 26.576 152.605 26.9707 152.285 27.44C151.965 27.888 151.506 28.336 150.909 28.784C150.312 29.232 149.586 29.6053 148.733 29.904C147.88 30.1813 146.898 30.32 145.789 30.32ZM141.437 20.464H150.205V20.368C150.205 19.408 150.024 18.5547 149.661 17.808C149.32 17.0613 148.818 16.4747 148.157 16.048C147.496 15.6 146.706 15.376 145.789 15.376C144.872 15.376 144.082 15.6 143.421 16.048C142.781 16.4747 142.29 17.0613 141.949 17.808C141.608 18.5547 141.437 19.408 141.437 20.368V20.464ZM163.695 30.32C161.498 30.32 159.748 29.648 158.447 28.304C157.146 26.9387 156.431 25.0827 156.303 22.736C156.282 22.4587 156.271 22.1067 156.271 21.68C156.271 21.232 156.282 20.8693 156.303 20.592C156.388 19.0773 156.74 17.7547 157.359 16.624C157.978 15.472 158.82 14.5867 159.887 13.968C160.975 13.3493 162.244 13.04 163.695 13.04C165.316 13.04 166.671 13.3813 167.759 14.064C168.868 14.7467 169.711 15.7173 170.287 16.976C170.863 18.2347 171.151 19.7067 171.151 21.392V21.936C171.151 22.1707 171.076 22.352 170.927 22.48C170.799 22.608 170.628 22.672 170.415 22.672H159.343C159.343 22.6933 159.343 22.736 159.343 22.8C159.343 22.864 159.343 22.9173 159.343 22.96C159.386 23.8347 159.578 24.656 159.919 25.424C160.26 26.1707 160.751 26.7787 161.391 27.248C162.031 27.7173 162.799 27.952 163.695 27.952C164.463 27.952 165.103 27.8347 165.615 27.6C166.127 27.3653 166.543 27.1093 166.863 26.832C167.183 26.5333 167.396 26.3093 167.503 26.16C167.695 25.8827 167.844 25.7227 167.951 25.68C168.058 25.616 168.228 25.584 168.463 25.584H169.999C170.212 25.584 170.383 25.648 170.511 25.776C170.66 25.8827 170.724 26.0427 170.703 26.256C170.682 26.576 170.511 26.9707 170.191 27.44C169.871 27.888 169.412 28.336 168.815 28.784C168.218 29.232 167.492 29.6053 166.639 29.904C165.786 30.1813 164.804 30.32 163.695 30.32ZM159.343 20.464H168.111V20.368C168.111 19.408 167.93 18.5547 167.567 17.808C167.226 17.0613 166.724 16.4747 166.063 16.048C165.402 15.6 164.612 15.376 163.695 15.376C162.778 15.376 161.988 15.6 161.327 16.048C160.687 16.4747 160.196 17.0613 159.855 17.808C159.514 18.5547 159.343 19.408 159.343 20.368V20.464ZM181.38 30C180.185 30 179.214 29.776 178.468 29.328C177.721 28.8587 177.177 28.208 176.836 27.376C176.494 26.5227 176.324 25.52 176.324 24.368V15.92H173.828C173.614 15.92 173.433 15.856 173.284 15.728C173.156 15.5787 173.092 15.3973 173.092 15.184V14.096C173.092 13.8827 173.156 13.712 173.284 13.584C173.433 13.4347 173.614 13.36 173.828 13.36H176.324V8.016C176.324 7.80267 176.388 7.632 176.516 7.504C176.665 7.35467 176.846 7.28 177.06 7.28H178.564C178.777 7.28 178.948 7.35467 179.076 7.504C179.225 7.632 179.3 7.80267 179.3 8.016V13.36H183.268C183.481 13.36 183.652 13.4347 183.78 13.584C183.929 13.712 184.004 13.8827 184.004 14.096V15.184C184.004 15.3973 183.929 15.5787 183.78 15.728C183.652 15.856 183.481 15.92 183.268 15.92H179.3V24.144C179.3 25.1467 179.47 25.936 179.812 26.512C180.153 27.088 180.761 27.376 181.636 27.376H183.588C183.801 27.376 183.972 27.4507 184.1 27.6C184.249 27.728 184.324 27.8987 184.324 28.112V29.264C184.324 29.4773 184.249 29.6587 184.1 29.808C183.972 29.936 183.801 30 183.588 30H181.38ZM193.592 30.32C192.226 30.32 191.064 30.0213 190.104 29.424C189.165 28.8053 188.45 27.952 187.96 26.864C187.469 25.776 187.224 24.528 187.224 23.12V14.096C187.224 13.8827 187.288 13.712 187.416 13.584C187.565 13.4347 187.746 13.36 187.96 13.36H189.56C189.773 13.36 189.944 13.4347 190.072 13.584C190.221 13.712 190.296 13.8827 190.296 14.096V22.96C190.296 26.1387 191.682 27.728 194.456 27.728C195.778 27.728 196.834 27.312 197.624 26.48C198.434 25.6267 198.84 24.4533 198.84 22.96V14.096C198.84 13.8827 198.904 13.712 199.032 13.584C199.181 13.4347 199.362 13.36 199.576 13.36H201.144C201.378 13.36 201.56 13.4347 201.688 13.584C201.816 13.712 201.88 13.8827 201.88 14.096V29.264C201.88 29.4773 201.816 29.6587 201.688 29.808C201.56 29.936 201.378 30 201.144 30H199.672C199.458 30 199.277 29.936 199.128 29.808C199 29.6587 198.936 29.4773 198.936 29.264V27.856C198.36 28.6027 197.656 29.2 196.824 29.648C196.013 30.096 194.936 30.32 193.592 30.32ZM207.402 36.08C207.188 36.08 207.007 36.0053 206.858 35.856C206.73 35.728 206.666 35.5573 206.666 35.344V14.096C206.666 13.8827 206.73 13.712 206.858 13.584C207.007 13.4347 207.188 13.36 207.402 13.36H208.874C209.087 13.36 209.258 13.4347 209.386 13.584C209.535 13.712 209.61 13.8827 209.61 14.096V15.504C210.122 14.8 210.804 14.2133 211.658 13.744C212.511 13.2747 213.578 13.04 214.858 13.04C216.052 13.04 217.066 13.2427 217.898 13.648C218.751 14.0533 219.444 14.608 219.978 15.312C220.532 16.016 220.948 16.816 221.226 17.712C221.503 18.608 221.652 19.568 221.674 20.592C221.695 20.9333 221.706 21.296 221.706 21.68C221.706 22.064 221.695 22.4267 221.674 22.768C221.652 23.7707 221.503 24.7307 221.226 25.648C220.948 26.544 220.532 27.344 219.978 28.048C219.444 28.7307 218.751 29.2853 217.898 29.712C217.066 30.1173 216.052 30.32 214.858 30.32C213.62 30.32 212.575 30.096 211.722 29.648C210.89 29.1787 210.207 28.6027 209.674 27.92V35.344C209.674 35.5573 209.61 35.728 209.482 35.856C209.354 36.0053 209.172 36.08 208.938 36.08H207.402ZM214.186 27.728C215.295 27.728 216.159 27.4933 216.778 27.024C217.418 26.5333 217.876 25.904 218.154 25.136C218.431 24.3467 218.591 23.504 218.634 22.608C218.655 21.9893 218.655 21.3707 218.634 20.752C218.591 19.856 218.431 19.024 218.154 18.256C217.876 17.4667 217.418 16.8373 216.778 16.368C216.159 15.8773 215.295 15.632 214.186 15.632C213.14 15.632 212.287 15.8773 211.626 16.368C210.986 16.8587 210.506 17.488 210.186 18.256C209.887 19.0027 209.716 19.7707 209.674 20.56C209.652 20.9013 209.642 21.3067 209.642 21.776C209.642 22.2453 209.652 22.6613 209.674 23.024C209.695 23.7707 209.866 24.5067 210.186 25.232C210.527 25.9573 211.028 26.5547 211.69 27.024C212.351 27.4933 213.183 27.728 214.186 27.728ZM231.456 30.32C230.261 30.32 229.237 30.1707 228.384 29.872C227.531 29.5733 226.837 29.2107 226.304 28.784C225.771 28.3573 225.365 27.9307 225.088 27.504C224.832 27.0773 224.693 26.736 224.672 26.48C224.651 26.2453 224.725 26.064 224.896 25.936C225.067 25.808 225.237 25.744 225.408 25.744H226.816C226.944 25.744 227.04 25.7653 227.104 25.808C227.189 25.8293 227.296 25.9147 227.424 26.064C227.701 26.3627 228.011 26.6613 228.352 26.96C228.693 27.2587 229.109 27.504 229.6 27.696C230.112 27.888 230.741 27.984 231.488 27.984C232.576 27.984 233.472 27.7813 234.176 27.376C234.88 26.9493 235.232 26.3307 235.232 25.52C235.232 24.9867 235.083 24.56 234.784 24.24C234.507 23.92 233.995 23.632 233.248 23.376C232.523 23.12 231.52 22.8533 230.24 22.576C228.96 22.2773 227.947 21.9147 227.2 21.488C226.453 21.04 225.92 20.5173 225.6 19.92C225.28 19.3013 225.12 18.608 225.12 17.84C225.12 17.0507 225.355 16.2933 225.824 15.568C226.293 14.8213 226.976 14.2133 227.872 13.744C228.789 13.2747 229.931 13.04 231.296 13.04C232.405 13.04 233.355 13.1787 234.144 13.456C234.933 13.7333 235.584 14.0853 236.096 14.512C236.608 14.9173 236.992 15.3227 237.248 15.728C237.504 16.1333 237.643 16.4747 237.664 16.752C237.685 16.9653 237.621 17.1467 237.472 17.296C237.323 17.424 237.152 17.488 236.96 17.488H235.616C235.467 17.488 235.339 17.456 235.232 17.392C235.147 17.328 235.061 17.2533 234.976 17.168C234.763 16.8907 234.507 16.6133 234.208 16.336C233.931 16.0587 233.557 15.8347 233.088 15.664C232.64 15.472 232.043 15.376 231.296 15.376C230.229 15.376 229.429 15.6 228.896 16.048C228.363 16.496 228.096 17.0613 228.096 17.744C228.096 18.1493 228.213 18.512 228.448 18.832C228.683 19.152 229.131 19.44 229.792 19.696C230.453 19.952 231.435 20.2293 232.736 20.528C234.144 20.8053 235.253 21.1787 236.064 21.648C236.875 22.1173 237.451 22.6613 237.792 23.28C238.133 23.8987 238.304 24.6133 238.304 25.424C238.304 26.32 238.037 27.1413 237.504 27.888C236.992 28.6347 236.224 29.232 235.2 29.68C234.197 30.1067 232.949 30.32 231.456 30.32Z" fill="black"/>
</svg>
